inDegrees=no
num_controls=7
num_derivatives=13
num_iterations=80
num_multipliers=7
num_parameters=0
num_slacks=7
num_states=26
objective=0.477234
objective_accelerations=0.045464
objective_balance=0.003680
objective_effort=0.041378
objective_height=0.381059
objective_ligament=0.005653
solver_duration=1096.298980
status=Solve_Succeeded
success=true
DataType=double
version=3
OpenSimVersion=4.5
endheader
time	/jointset/ground_pelvis/pelvis_tilt/value	/jointset/ground_pelvis/pelvis_tx/value	/jointset/ground_pelvis/pelvis_ty/value	/jointset/hip_l/hip_flexion_l/value	/jointset/hip_l/hip_adduction_l/value	/jointset/hip_l/hip_rotation_l/value	/jointset/back/lumbar_extension/value	/jointset/patellofemoral_l/patellar_flexion_l/value	/jointset/knee_l/knee_flexion_l/value	/jointset/knee_l/knee_adduction_l/value	/jointset/knee_l/knee_rotation_l/value	/jointset/ankle_l/ankle_angle_l/value	/jointset/subtalar_l/subtalar_angle_l/value	/jointset/ground_pelvis/pelvis_tilt/speed	/jointset/ground_pelvis/pelvis_tx/speed	/jointset/ground_pelvis/pelvis_ty/speed	/jointset/hip_l/hip_flexion_l/speed	/jointset/hip_l/hip_adduction_l/speed	/jointset/hip_l/hip_rotation_l/speed	/jointset/back/lumbar_extension/speed	/jointset/patellofemoral_l/patellar_flexion_l/speed	/jointset/knee_l/knee_flexion_l/speed	/jointset/knee_l/knee_adduction_l/speed	/jointset/knee_l/knee_rotation_l/speed	/jointset/ankle_l/ankle_angle_l/speed	/jointset/subtalar_l/subtalar_angle_l/speed	/forceset/tau_hip_flexion_l	/forceset/tau_hip_adduction_l	/forceset/tau_hip_rotation_l	/forceset/tau_knee_flexion_l	/forceset/tau_ankle_angle_l	/forceset/tau_subtalar_angle_l	/forceset/tau_lumbar_extension	lambda_cid13_p0	lambda_cid13_p1	lambda_cid13_p2	lambda_cid13_p3	lambda_cid13_p4	lambda_cid13_p5	lambda_cid14_p0	/jointset/ground_pelvis/pelvis_tilt/accel	/jointset/ground_pelvis/pelvis_tx/accel	/jointset/ground_pelvis/pelvis_ty/accel	/jointset/hip_l/hip_flexion_l/accel	/jointset/hip_l/hip_adduction_l/accel	/jointset/hip_l/hip_rotation_l/accel	/jointset/back/lumbar_extension/accel	/jointset/patellofemoral_l/patellar_flexion_l/accel	/jointset/knee_l/knee_flexion_l/accel	/jointset/knee_l/knee_adduction_l/accel	/jointset/knee_l/knee_rotation_l/accel	/jointset/ankle_l/ankle_angle_l/accel	/jointset/subtalar_l/subtalar_angle_l/accel	gamma_cid13_p0	gamma_cid13_p1	gamma_cid13_p2	gamma_cid13_p3	gamma_cid13_p4	gamma_cid13_p5	gamma_cid14_p0
1	-0.1194957389982536	-0.06051629110023584	0.6749462175209677	1.356809912991241	-0.326605890252887	0.07444002384981191	-0.9599299063652189	1.416341246202358	1.416341246202381	-0.05963664781412507	-0.1745324931090866	0.2781572209594272	0.06634539025374468	0.1020369204250505	0.02553517227559437	0.07077345457858876	-0.2987296128580526	-0.007545613847126378	-0.06631222335447816	-0.0002271067654127128	-0.1603458392704797	-0.1603458392704819	-0.0006843464079734941	-0.0001095549401801352	0.02771794783803264	0.003379212716465782	-0.383926803239369	0.03413907234271118	0.001223933498281938	-0.3738812050752449	0.03855508875980454	0.01205736328656331	0.4318533226569387	-39.78441124424679	4.191602206421138	-3.934934281449264	16.0992300932638	-802.9194329722317	-53.37652848366148	-0.0413649436123563	0.8706262961211432	-0.04064942632855061	1.592011670925126	-5.102742239709586	-0.127966365615654	-1.663528814020296	0.01062616236364077	-5.105803911251683	-5.105803911251689	-0.3862656932693525	-0.0002931072838280807	-1.23548479265083	-0.6889308404870518	-8.920418955011644e-09	2.024271653299037e-08	6.046967250624425e-08	6.34756834093679e-09	-2.320477301949971e-08	1.28116284641524e-07	-1.647482832625652e-08
1.01	-0.1184322104494471	-0.06026290309854204	0.675733316109307	1.353568387866473	-0.3266870054529746	0.07369298374441506	-0.9599309573882111	1.414482934952094	1.414482934952107	-0.05966097133520491	-0.1745326683627039	0.2783727502583415	0.06634578447510281	0.1106685530779978	0.02515015093764806	0.08663270280937467	-0.3495489585564518	-0.008669136893582865	-0.08308607378986656	3.918276637252446e-05	-0.2113021367525328	-0.2113021367525335	-0.004179372545110068	7.059740181793982e-05	0.01537700554782283	-0.003294344252288487	-0.3830765134764627	0.03438576001752523	0.001148884722251104	-0.3736467002845131	0.03852514635732793	0.01214972043539667	0.431450400798672	-39.75358270599649	4.139909420229933	-3.919629129287773	15.92135440343579	-802.4808661291099	-53.38482247806098	-0.04139822393167426	0.8593941550925737	-0.03626756947574616	1.580841532378609	-5.067565629978905	-0.1033088992528241	-1.682872250807485	0.03797245273046611	-5.088396926715096	-5.088396926714849	-0.3309848956619816	0.02660543905331698	-1.235035156394492	-0.65567679887936	-1.556454970179802e-08	1.180048307928666e-08	8.930256257192297e-08	1.237379366377831e-08	-2.906468480070378e-08	1.494590027935926e-07	-2.311032648050687e-08
1.02	-0.1172823730930749	-0.06001313312661741	0.6766785992065988	1.349819462305689	-0.3267791086085503	0.07277849331618413	-0.9599286770960156	1.412115489875002	1.412115489875013	-0.0597202178819801	-0.1745311548861324	0.278464542892515	0.06627962139201111	0.1192986819393895	0.02481156632176261	0.1024103563690432	-0.4002097000578123	-0.009743204943736641	-0.09980228792563324	0.0004391564639271075	-0.262172604635907	-0.2621726046359061	-0.007668951551297453	0.0002281911082774897	0.002970614890074219	-0.009932248173436313	-0.3822262237136039	0.03463244769236658	0.001073835946301484	-0.3734121954937807	0.03849520395486763	0.01224207758427227	0.4310474789403623	-39.73387310162075	4.090639058134792	-3.905253480357283	15.80354588590045	-802.1871278953379	-53.37068253980533	-0.04143257836423087	0.8703255378100779	-0.03136208191639678	1.575692736701648	-5.071021400301818	-0.1180753663551298	-1.652001554095975	0.0373629955174568	-5.088637991515899	-5.088637991515908	-0.3851762670795135	-0.00480483439157507	-1.248574466158627	-0.6818002309658006	-2.24620274507704e-08	1.472270894868403e-09	1.159604988204772e-07	1.844479140761653e-08	-3.563002653753321e-08	1.668917174784747e-07	-2.939326349637327e-08
1.03	-0.1160467404136575	-0.05976628813870068	0.6777812069039865	1.345565039423196	-0.3268817011785615	0.07169714687170117	-0.959919802555452	1.409239844274949	1.40923984427494	-0.05981432011834628	-0.1745281918555979	0.2784322175006985	0.06614739970087177	0.1277783420296861	0.02458829397942499	0.1180934583605005	-0.4506184002376414	-0.01076867364754753	-0.116459456394834	0.001550395236160403	-0.312935530707497	-0.3129355307074976	-0.0111486571380416	0.0003547659825607027	-0.009419460194691028	-0.01649470500107854	-0.3827513015366142	0.03500873850722423	0.0009572957422440684	-0.3726809793096633	0.03834741949749005	0.01243526541241314	0.4323010707853213	-39.77711875075166	3.993965683866041	-3.866603426175428	15.26758253749813	-802.7039488079619	-53.34900255752799	-0.04147435906149591	0.829356793789467	-0.01317546268076192	1.56195173780213	-5.017326804013379	-0.09380011353945845	-1.671471269730939	0.180200852051744	-5.0669650422871	-5.066965042287324	-0.3289611450321515	0.01997469502767977	-1.231791099703179	-0.6408758335194762	-2.936209037323448e-08	-8.87518597047552e-09	1.425962416627342e-07	2.451624601289348e-08	-4.220256653921596e-08	1.842845341687937e-07	-3.567260294960309e-08
1.04	-0.1147277970235133	-0.05952074900466506	0.6790401121827755	1.340808223043448	-0.3269943519338451	0.07044944938726312	-0.9598933763202067	1.405857200388719	1.405857200388699	-0.05994313809867419	-0.1745242458670145	0.27827647794402	0.06595007195648447	0.1359608240859874	0.02455039554554096	0.1336698726492964	-0.5006883995050734	-0.01175484199718143	-0.1330724959199911	0.003949495367404647	-0.3635722618713509	-0.3635722618713529	-0.0146121003472018	0.0004247827244134792	-0.0217122180821657	-0.02295345882296655	-0.3832763793596794	0.03538502932209846	0.0008407555382610104	-0.3719497631255466	0.03819963504012682	0.01262845324058119	0.43355466263023	-39.83170477484428	3.899746257156099	-3.828879637636387	14.79039858971116	-803.369324928989	-53.305534683424	-0.04151703802571998	0.8108899310110359	0.005712699774318004	1.55435519616937	-5.00328121782238	-0.1102152955197978	-1.643175765287314	0.2949352673190548	-5.063399009968673	-5.063399009968645	-0.3819237915627425	-0.01611646087780215	-1.22911102670053	-0.6610596298150465	-3.394606194817752e-08	-1.94698452252522e-08	1.685440848276541e-07	2.648194034227299e-08	-4.801214744707056e-08	1.940870887548378e-07	-4.103317748585584e-08
1.05	-0.1133285921216499	-0.05927465884628063	0.6804541821920931	1.335552605463002	-0.3271166117830899	0.06903592751221865	-0.9598365846701825	1.401968850958146	1.401968850958127	-0.06010652225605756	-0.1745198301901768	0.2779982074981746	0.06568872323689801	0.1438208203074936	0.02469883715221277	0.149119579597322	-0.5503560697245468	-0.01268399374899625	-0.1496192459464746	0.007619720092607497	-0.4140738015729941	-0.4140738015729915	-0.01805901447835056	0.000455257556076601	-0.03393461887025972	-0.02929290590197288	-0.3833058589900495	0.03577525538691741	0.0006962093488239524	-0.3711327755866357	0.03839531825377674	0.01285111198045701	0.4344021228976334	-39.74416642602114	3.763106847557137	-3.77898339863998	14.19708096716568	-803.5834212436671	-53.29879987823796	-0.04157684446398088	0.7646507397779315	0.02409572668841282	1.536585183547172	-4.936657753549429	-0.08231438902937877	-1.658567421903951	0.4346988925284777	-5.039948722796082	-5.039948722795372	-0.3252431340689203	0.01220919849475141	-1.217719741698267	-0.6168982933206764	-3.845765566851054e-08	-3.007222955469865e-08	1.944704311276573e-07	2.831932966303074e-08	-5.379788588324304e-08	2.036524476501234e-07	-4.636504061845306e-08
1.06	-0.1118525680031652	-0.05902614710471457	0.6820220106187767	1.329802681614445	-0.3272477730046592	0.06745730957680453	-0.9597367642093949	1.39757620267605	1.397576202676035	-0.06030420913677676	-0.1745151938163707	0.2775979300170808	0.06536467783724571	0.1513246674113076	0.02503471218186451	0.1644215561224555	-0.5995496531256048	-0.01353511646149735	-0.1660917079959642	0.01255525751411339	-0.464432032175995	-0.4644320321759877	-0.02147264501662312	0.0004689221199885239	-0.04611362513173189	-0.03549279483607292	-0.3833353386204315	0.0361654814517454	0.0005516631594430237	-0.3703157880477239	0.03859100146743107	0.01307377072034593	0.4352495831650255	-39.66815840789643	3.628935332920028	-3.729993605317673	13.66096233557309	-803.9490301535643	-53.27177438374402	-0.04163790650379399	0.7396601074725969	0.0431993843703118	1.524809111590947	-4.908463854139304	-0.0946094876571399	-1.628318169888606	0.5479978065795093	-5.034737190240182	-5.034737190240177	-0.3752670729875303	-0.01947851442822185	-1.220432121376165	-0.6331480008338984	-4.359014697807947e-08	-4.081784540737289e-08	2.184272169428382e-07	3.139775695294864e-08	-6.019514787834169e-08	2.116679970419787e-07	-5.136895296906782e-08
